<svg xmlns="http://www.w3.org/2000/svg" width="244" height="62" viewBox="0 0 122 31" fill="#ffffff">
  <path d="M33.3377 15.8074C33.3377 10.142 35.7346 6.72827 40.0563 6.76458C43.5064 6.72827 45.3948 8.58041 46.1211 12.1031H46.1938V2.00713H50.1159V24.2691H46.1938V19.439H46.1211C45.3585 22.9617 43.3248 24.7412 40.0563 24.7412C35.662 24.7412 33.3377 21.3275 33.3377 15.8074ZM46.1938 15.9163V15.6258C46.1938 12.3936 44.4506 10.251 41.6542 10.251C38.6399 10.251 37.2236 12.321 37.2236 15.8074C37.2236 19.1848 38.6036 21.1822 41.6542 21.1822C44.4506 21.1822 46.1938 19.2938 46.1938 15.9163Z"/>
  <path d="M60.6542 24.7049C55.4246 24.7049 51.9383 21.618 51.9383 15.9526C51.9383 10.1783 55.3157 6.76458 60.6542 6.76458C65.8475 6.76458 68.4622 10.0331 68.4622 14.7179V14.7542C68.4622 15.4442 68.4986 16.0979 68.3896 17.0058H55.8604C56.2236 19.8748 57.8215 21.2912 60.6905 21.2912C63.4143 21.2912 64.4674 19.9475 64.9396 18.2043L68.3533 19.1848C67.4817 22.417 65.1575 24.7049 60.6542 24.7049ZM55.8968 14.1005H64.8306C64.6127 11.4131 63.1964 10.0694 60.5453 10.0694C57.9668 10.0694 56.3326 11.3405 55.8968 14.1005Z"/>
  <path d="M86.4701 13.701L82.6932 14.3184C82.2211 11.8852 80.9137 10.3236 78.2626 10.3236C75.4662 10.3236 73.5051 12.0668 73.5051 15.7347C73.5051 19.2211 75.4299 21.1459 78.3352 21.1459C81.2405 21.1459 82.2211 19.3301 82.7658 16.8969L86.5064 17.6595C85.8164 22.0175 83.3469 24.7412 78.4078 24.7412C73.033 24.7412 69.5103 21.5817 69.5103 15.7711C69.5103 10.1057 73.0693 6.76458 78.2989 6.76458C83.4195 6.76458 85.7801 9.30673 86.4701 13.701Z"/>
  <path d="M96.2956 24.7412C90.8119 24.7412 87.5434 21.3275 87.5434 15.6984C87.5434 10.0694 91.0298 6.76458 96.2956 6.76458C101.525 6.76458 105.012 10.0694 105.012 15.6984C105.012 21.3275 101.707 24.7412 96.2956 24.7412ZM96.2956 10.3236C93.2451 10.3236 91.4655 12.4299 91.4655 15.6621C91.4655 18.9669 93.1724 21.1459 96.2593 21.1459C99.3462 21.1459 101.126 18.9669 101.126 15.6621C101.126 12.4299 99.3099 10.3236 96.2956 10.3236Z"/>
  <path d="M111.359 24.0149L104.459 7.20038H108.744L110.96 13.3742C111.686 15.2989 112.594 17.9137 113.429 20.238H113.502C114.337 17.8774 115.173 15.4442 115.79 13.4468L117.787 7.20038H122L114.991 24.4507C113.248 28.7724 111.141 30.6245 107.219 30.6245C106.093 30.6245 105.367 30.5155 104.604 30.4066L105.149 26.7386C105.875 26.8839 106.602 26.9928 107.328 26.9928C109.253 26.9928 110.27 26.5571 111.359 24.0149Z"/>
  <path d="M10.213 6.13277C11.0833 2.50323 11.5185 0.688457 12.2129 0.27025C12.8113 -0.0900834 13.5536 -0.0900834 14.1519 0.27025C14.8464 0.688457 15.2815 2.50323 16.1519 6.13277L17.7418 12.763C17.8196 13.0877 17.8586 13.2501 17.9224 13.4011C17.9792 13.5351 18.0504 13.6622 18.1347 13.78C18.2298 13.9127 18.3471 14.0291 18.5816 14.262L23.4291 19.0751C26.0206 21.6483 26.1471 22.3112 26.1502 23.1333C26.153 23.8419 25.7807 24.4964 25.1771 24.8441C24.4768 25.2476 23.9123 25.3549 20.4447 24.322L14.0373 22.4134C13.7193 22.3187 13.5604 22.2713 13.3986 22.2525C13.2549 22.2358 13.1099 22.2358 12.9663 22.2525C12.8045 22.2713 12.6455 22.3187 12.3276 22.4134L5.92017 24.322C2.45257 25.3549 1.67347 25.2476 0.973122 24.8441C0.369603 24.4964 -0.00271306 23.8419 1.48886e-05 23.1333C0.0031805 22.3112 0.344237 21.6483 2.93575 19.0751L7.78321 14.262C8.01777 14.0291 8.13505 13.9127 8.2301 13.78C8.31448 13.6622 8.38569 13.5351 8.4424 13.4011C8.50627 13.2501 8.54521 13.0877 8.62309 12.763L10.213 6.13277Z"/>
</svg>
